<mxfile host="app.diagrams.net" agent="Mozilla/5.0 (Macintosh; Intel Mac OS X 10_15_7) AppleWebKit/537.36 (KHTML, like Gecko) Chrome/134.0.0.0 Safari/537.36" version="26.1.1" pages="2">
  <diagram name="Page-1" id="_9mDkpji30jNcDsXQ54_">
    <mxGraphModel dx="5120" dy="2417" grid="1" gridSize="10" guides="1" tooltips="1" connect="1" arrows="1" fold="1" page="1" pageScale="1" pageWidth="850" pageHeight="1100" math="0" shadow="0">
      <root>
        <mxCell id="0" />
        <mxCell id="1" parent="0" />
        <mxCell id="iAwMKfYmuOtD-HWWdZDS-1" value="&lt;i&gt;AppFrame&lt;/i&gt;" style="swimlane;fontStyle=1;align=center;verticalAlign=top;childLayout=stackLayout;horizontal=1;startSize=26;horizontalStack=0;resizeParent=1;resizeParentMax=0;resizeLast=0;collapsible=1;marginBottom=0;whiteSpace=wrap;html=1;" parent="1" vertex="1">
          <mxGeometry y="40" width="610" height="480" as="geometry" />
        </mxCell>
        <mxCell id="inuUJrZlu9zw-JTVeuuu-2" style="edgeStyle=orthogonalEdgeStyle;rounded=0;orthogonalLoop=1;jettySize=auto;html=1;exitX=1;exitY=0.5;exitDx=0;exitDy=0;endArrow=block;endFill=0;endSize=12;" edge="1" parent="iAwMKfYmuOtD-HWWdZDS-1" source="iAwMKfYmuOtD-HWWdZDS-2">
          <mxGeometry relative="1" as="geometry">
            <mxPoint x="1340" y="109" as="targetPoint" />
          </mxGeometry>
        </mxCell>
        <mxCell id="iAwMKfYmuOtD-HWWdZDS-2" value="&lt;font face=&quot;Courier New&quot; style=&quot;font-size: 13px;&quot;&gt;- title: String&lt;/font&gt;&lt;div&gt;&lt;font face=&quot;Courier New&quot; style=&quot;font-size: 13px;&quot;&gt;- titleFont: Font&lt;/font&gt;&lt;/div&gt;&lt;div&gt;&lt;font face=&quot;Courier New&quot; style=&quot;font-size: 13px;&quot;&gt;- windowTitle: String&lt;/font&gt;&lt;/div&gt;&lt;div&gt;&lt;font face=&quot;Courier New&quot; style=&quot;font-size: 13px;&quot;&gt;- centerLayout: LayoutManager&lt;/font&gt;&lt;/div&gt;&lt;div&gt;&lt;font face=&quot;Courier New&quot; style=&quot;font-size: 13px;&quot;&gt;- windowWitdth: int&lt;/font&gt;&lt;/div&gt;&lt;div&gt;&lt;font face=&quot;Courier New&quot; style=&quot;font-size: 13px;&quot;&gt;- windowHeight: int&lt;/font&gt;&lt;/div&gt;&lt;div&gt;&lt;font face=&quot;Courier New&quot; style=&quot;font-size: 13px;&quot;&gt;- mainFrame: JFrame&lt;/font&gt;&lt;/div&gt;&lt;div&gt;&lt;font face=&quot;Courier New&quot; style=&quot;font-size: 13px;&quot;&gt;- panelTitle: JPanel&lt;/font&gt;&lt;/div&gt;&lt;div&gt;&lt;font face=&quot;Courier New&quot; style=&quot;font-size: 13px;&quot;&gt;- panelMainContainer: JPanel&lt;/font&gt;&lt;/div&gt;&lt;div&gt;&lt;font face=&quot;Courier New&quot; style=&quot;font-size: 13px;&quot;&gt;- labelTitle: JLabel&lt;/font&gt;&lt;/div&gt;" style="text;strokeColor=none;fillColor=none;align=left;verticalAlign=top;spacingLeft=4;spacingRight=4;overflow=hidden;rotatable=0;points=[[0,0.5],[1,0.5]];portConstraint=eastwest;whiteSpace=wrap;html=1;" parent="iAwMKfYmuOtD-HWWdZDS-1" vertex="1">
          <mxGeometry y="26" width="610" height="164" as="geometry" />
        </mxCell>
        <mxCell id="iAwMKfYmuOtD-HWWdZDS-3" value="" style="line;strokeWidth=1;fillColor=none;align=left;verticalAlign=middle;spacingTop=-1;spacingLeft=3;spacingRight=3;rotatable=0;labelPosition=right;points=[];portConstraint=eastwest;strokeColor=inherit;" parent="iAwMKfYmuOtD-HWWdZDS-1" vertex="1">
          <mxGeometry y="190" width="610" height="18" as="geometry" />
        </mxCell>
        <mxCell id="iAwMKfYmuOtD-HWWdZDS-4" value="&lt;div style=&quot;line-height: 19px; white-space: pre; font-family: Consolas, &amp;quot;Courier New&amp;quot;, monospace;&quot;&gt;&lt;div style=&quot;&quot;&gt;&lt;font style=&quot;color: rgb(0, 0, 0);&quot;&gt;&amp;nbsp;&lt;i style=&quot;&quot;&gt;+ &amp;lt;&amp;lt;constructor&amp;gt;&amp;gt;AppFrame(String, LayoutManager):void&lt;/i&gt;&lt;/font&gt;&lt;/div&gt;&lt;div style=&quot;&quot;&gt;&lt;span style=&quot;color: rgb(106, 153, 85);&quot;&gt;&lt;font style=&quot;color: rgb(0, 0, 0);&quot;&gt; - createMainFrame(): void&lt;/font&gt;&lt;/span&gt;&lt;/div&gt;&lt;div style=&quot;&quot;&gt;&lt;span style=&quot;color: rgb(106, 153, 85);&quot;&gt;&lt;font style=&quot;color: rgb(0, 0, 0);&quot;&gt;&amp;nbsp;- createTitlePanel(): void&lt;/font&gt;&lt;/span&gt;&lt;/div&gt;&lt;div style=&quot;&quot;&gt;&lt;span style=&quot;color: rgb(106, 153, 85);&quot;&gt;&lt;font style=&quot;color: rgb(0, 0, 0);&quot;&gt;&amp;nbsp;- createMainContainer(): void&lt;/font&gt;&lt;/span&gt;&lt;/div&gt;&lt;div style=&quot;&quot;&gt;&lt;span style=&quot;color: rgb(106, 153, 85);&quot;&gt;&lt;font style=&quot;color: rgb(0, 0, 0);&quot;&gt;&amp;nbsp;- createFrameTitle(): void&lt;/font&gt;&lt;/span&gt;&lt;/div&gt;&lt;div style=&quot;&quot;&gt;&lt;span style=&quot;color: rgb(106, 153, 85);&quot;&gt;&lt;font style=&quot;color: rgb(0, 0, 0);&quot;&gt;&amp;nbsp;- loadMainFrame(): void&lt;/font&gt;&lt;/span&gt;&lt;/div&gt;&lt;div style=&quot;&quot;&gt;&lt;span style=&quot;color: rgb(106, 153, 85);&quot;&gt;&lt;font style=&quot;color: rgb(0, 0, 0);&quot;&gt;&amp;nbsp;+ addToMainContainer(JComponent): void throws LayoutMismatchException&lt;/font&gt;&lt;/span&gt;&lt;/div&gt;&lt;div style=&quot;&quot;&gt;&lt;span style=&quot;color: rgb(106, 153, 85);&quot;&gt;&lt;font style=&quot;color: rgb(0, 0, 0);&quot;&gt;&amp;nbsp;+ addToMainContainer(JComponent, int): void throws LayoutMismatchException&lt;/font&gt;&lt;/span&gt;&lt;/div&gt;&lt;div style=&quot;&quot;&gt;&lt;span style=&quot;color: rgb(106, 153, 85);&quot;&gt;&lt;font style=&quot;color: rgb(0, 0, 0);&quot;&gt;&amp;nbsp;+ dispose(): void&lt;/font&gt;&lt;/span&gt;&lt;/div&gt;&lt;div style=&quot;&quot;&gt;&lt;span style=&quot;color: rgb(106, 153, 85);&quot;&gt;&lt;font style=&quot;color: rgb(0, 0, 0);&quot;&gt;&amp;nbsp;+ setVisible(): void&lt;/font&gt;&lt;/span&gt;&lt;/div&gt;&lt;div style=&quot;&quot;&gt;&lt;span style=&quot;color: rgb(106, 153, 85);&quot;&gt;&lt;font style=&quot;color: rgb(0, 0, 0);&quot;&gt;&amp;nbsp;+ setLayout(): void&lt;/font&gt;&lt;/span&gt;&lt;/div&gt;&lt;div style=&quot;&quot;&gt;&lt;span style=&quot;color: rgb(106, 153, 85);&quot;&gt;&lt;font style=&quot;color: rgb(0, 0, 0);&quot;&gt;&amp;nbsp;+ getWindowWidth(): int&lt;/font&gt;&lt;/span&gt;&lt;/div&gt;&lt;div style=&quot;&quot;&gt;&lt;span style=&quot;color: rgb(106, 153, 85);&quot;&gt;&lt;font style=&quot;color: rgb(0, 0, 0);&quot;&gt;&amp;nbsp;+ getWindowHeight(): int&lt;/font&gt;&lt;/span&gt;&lt;/div&gt;&lt;/div&gt;" style="text;strokeColor=none;fillColor=none;align=left;verticalAlign=top;spacingLeft=4;spacingRight=4;overflow=hidden;rotatable=0;points=[[0,0.5],[1,0.5]];portConstraint=eastwest;whiteSpace=wrap;html=1;" parent="iAwMKfYmuOtD-HWWdZDS-1" vertex="1">
          <mxGeometry y="208" width="610" height="272" as="geometry" />
        </mxCell>
        <mxCell id="inuUJrZlu9zw-JTVeuuu-4" style="edgeStyle=orthogonalEdgeStyle;rounded=0;orthogonalLoop=1;jettySize=auto;html=1;exitX=1;exitY=0.5;exitDx=0;exitDy=0;entryX=0.25;entryY=0;entryDx=0;entryDy=0;endArrow=none;startFill=0;" edge="1" parent="1" source="iAwMKfYmuOtD-HWWdZDS-5" target="iAwMKfYmuOtD-HWWdZDS-15">
          <mxGeometry relative="1" as="geometry" />
        </mxCell>
        <mxCell id="iAwMKfYmuOtD-HWWdZDS-5" value="FinanceTracker" style="swimlane;fontStyle=0;childLayout=stackLayout;horizontal=1;startSize=26;fillColor=none;horizontalStack=0;resizeParent=1;resizeParentMax=0;resizeLast=0;collapsible=1;marginBottom=0;whiteSpace=wrap;html=1;" parent="1" vertex="1">
          <mxGeometry x="-910" y="540" width="240" height="80" as="geometry" />
        </mxCell>
        <mxCell id="iAwMKfYmuOtD-HWWdZDS-6" value="&lt;font face=&quot;Courier New&quot;&gt;+ &amp;lt;&amp;lt;constructor&amp;gt;&amp;gt;FinaceTracker&lt;/font&gt;&lt;div&gt;&lt;font face=&quot;Courier New&quot;&gt;+ runApp():void&lt;/font&gt;&lt;/div&gt;&lt;div&gt;&lt;font face=&quot;Courier New&quot;&gt;+ &lt;u&gt;main(String [] args):void&lt;/u&gt;&lt;/font&gt;&lt;/div&gt;" style="text;strokeColor=none;fillColor=none;align=left;verticalAlign=top;spacingLeft=4;spacingRight=4;overflow=hidden;rotatable=0;points=[[0,0.5],[1,0.5]];portConstraint=eastwest;whiteSpace=wrap;html=1;" parent="iAwMKfYmuOtD-HWWdZDS-5" vertex="1">
          <mxGeometry y="26" width="240" height="54" as="geometry" />
        </mxCell>
        <mxCell id="iAwMKfYmuOtD-HWWdZDS-11" value="LayoutMismatchException" style="swimlane;fontStyle=0;childLayout=stackLayout;horizontal=1;startSize=26;fillColor=none;horizontalStack=0;resizeParent=1;resizeParentMax=0;resizeLast=0;collapsible=1;marginBottom=0;whiteSpace=wrap;html=1;" parent="1" vertex="1">
          <mxGeometry x="-820" y="108" width="340" height="80" as="geometry" />
        </mxCell>
        <mxCell id="iAwMKfYmuOtD-HWWdZDS-12" value="&lt;font face=&quot;Courier New&quot;&gt;+ &amp;lt;&amp;lt;constructor&amp;gt;&amp;gt;LayoutMismatchException(String)&lt;/font&gt;" style="text;strokeColor=none;fillColor=none;align=left;verticalAlign=top;spacingLeft=4;spacingRight=4;overflow=hidden;rotatable=0;points=[[0,0.5],[1,0.5]];portConstraint=eastwest;whiteSpace=wrap;html=1;" parent="iAwMKfYmuOtD-HWWdZDS-11" vertex="1">
          <mxGeometry y="26" width="340" height="54" as="geometry" />
        </mxCell>
        <mxCell id="hcySeCw22KZVgcper9xz-9" style="edgeStyle=orthogonalEdgeStyle;rounded=0;orthogonalLoop=1;jettySize=auto;html=1;exitX=0.5;exitY=0;exitDx=0;exitDy=0;endArrow=block;endFill=0;endSize=12;" edge="1" parent="1" source="iAwMKfYmuOtD-HWWdZDS-15" target="iAwMKfYmuOtD-HWWdZDS-4">
          <mxGeometry relative="1" as="geometry" />
        </mxCell>
        <mxCell id="inuUJrZlu9zw-JTVeuuu-5" style="edgeStyle=orthogonalEdgeStyle;rounded=0;orthogonalLoop=1;jettySize=auto;html=1;exitX=0.75;exitY=0;exitDx=0;exitDy=0;entryX=0.25;entryY=0;entryDx=0;entryDy=0;endArrow=none;startFill=0;" edge="1" parent="1" source="iAwMKfYmuOtD-HWWdZDS-15" target="iAwMKfYmuOtD-HWWdZDS-23">
          <mxGeometry relative="1" as="geometry" />
        </mxCell>
        <mxCell id="iAwMKfYmuOtD-HWWdZDS-15" value="MenuFrame" style="swimlane;fontStyle=1;align=center;verticalAlign=top;childLayout=stackLayout;horizontal=1;startSize=26;horizontalStack=0;resizeParent=1;resizeParentMax=0;resizeLast=0;collapsible=1;marginBottom=0;whiteSpace=wrap;html=1;" parent="1" vertex="1">
          <mxGeometry x="-630" y="790" width="535" height="620" as="geometry" />
        </mxCell>
        <mxCell id="iAwMKfYmuOtD-HWWdZDS-16" value="&lt;div style=&quot;font-family: Consolas, &amp;quot;Courier New&amp;quot;, monospace; line-height: 19px; white-space: pre;&quot;&gt;&lt;div style=&quot;&quot;&gt;&lt;span&gt;&lt;font style=&quot;color: rgb(0, 0, 0);&quot;&gt; - selection: int&lt;/font&gt;&lt;/span&gt;&lt;/div&gt;&lt;div style=&quot;&quot;&gt;&lt;span&gt;&lt;font style=&quot;color: rgb(0, 0, 0);&quot;&gt;&amp;nbsp;- LEFT: int&lt;/font&gt;&lt;/span&gt;&lt;/div&gt;&lt;div style=&quot;&quot;&gt;&lt;span&gt;&lt;font style=&quot;color: rgb(0, 0, 0);&quot;&gt;&amp;nbsp;- CENTER: int&lt;/font&gt;&lt;/span&gt;&lt;/div&gt;&lt;div style=&quot;&quot;&gt;&lt;span&gt;&lt;font style=&quot;color: rgb(0, 0, 0);&quot;&gt;&amp;nbsp;- RIGHT: int&lt;/font&gt;&lt;/span&gt;&lt;/div&gt;&lt;div style=&quot;&quot;&gt;&lt;span&gt;&lt;font style=&quot;color: rgb(0, 0, 0);&quot;&gt;&amp;nbsp;- BUTTON_FONT: Font&lt;/font&gt;&lt;/span&gt;&lt;/div&gt;&lt;div style=&quot;&quot;&gt;&lt;span&gt;&lt;font style=&quot;color: rgb(0, 0, 0);&quot;&gt;&amp;nbsp;- topPanel: &amp;nbsp;JPanel&lt;/font&gt;&lt;/span&gt;&lt;/div&gt;&lt;div style=&quot;&quot;&gt;&lt;span&gt;&lt;font style=&quot;color: rgb(0, 0, 0);&quot;&gt;&amp;nbsp;- centerPanel: JPanel&lt;/font&gt;&lt;/span&gt;&lt;/div&gt;&lt;div style=&quot;&quot;&gt;&lt;span&gt;&lt;font style=&quot;color: rgb(0, 0, 0);&quot;&gt;&amp;nbsp;- bottomPanel: JPanel&lt;/font&gt;&lt;/span&gt;&lt;/div&gt;&lt;div style=&quot;&quot;&gt;&lt;span&gt;&lt;font style=&quot;color: rgb(0, 0, 0);&quot;&gt;&amp;nbsp;- newEntryButton: JButton&lt;/font&gt;&lt;/span&gt;&lt;/div&gt;&lt;div style=&quot;&quot;&gt;&lt;span&gt;&lt;font style=&quot;color: rgb(0, 0, 0);&quot;&gt;&amp;nbsp;- editEntryButton: JButton&lt;/font&gt;&lt;/span&gt;&lt;/div&gt;&lt;div style=&quot;&quot;&gt;&lt;span&gt;&lt;font style=&quot;color: rgb(0, 0, 0);&quot;&gt;&amp;nbsp;- deleteEntryButton: JButton&lt;/font&gt;&lt;/span&gt;&lt;/div&gt;&lt;div style=&quot;&quot;&gt;&lt;span&gt;&lt;font style=&quot;color: rgb(0, 0, 0);&quot;&gt;&amp;nbsp;- viewCurrentMonthButton: JButton&lt;/font&gt;&lt;/span&gt;&lt;/div&gt;&lt;div style=&quot;&quot;&gt;&lt;span&gt;&lt;font style=&quot;color: rgb(0, 0, 0);&quot;&gt;&amp;nbsp;- viewPastMonthButton: JButton&lt;/font&gt;&lt;/span&gt;&lt;/div&gt;&lt;div style=&quot;&quot;&gt;&lt;span&gt;&lt;font style=&quot;color: rgb(0, 0, 0);&quot;&gt;&amp;nbsp;- newMonthButton: JButton&lt;/font&gt;&lt;/span&gt;&lt;/div&gt;&lt;div style=&quot;&quot;&gt;&lt;span&gt;&lt;font style=&quot;color: rgb(0, 0, 0);&quot;&gt;&amp;nbsp;- clearMonthButton: JButton&lt;/font&gt;&lt;/span&gt;&lt;/div&gt;&lt;/div&gt;" style="text;strokeColor=none;fillColor=none;align=left;verticalAlign=top;spacingLeft=4;spacingRight=4;overflow=hidden;rotatable=0;points=[[0,0.5],[1,0.5]];portConstraint=eastwest;whiteSpace=wrap;html=1;" parent="iAwMKfYmuOtD-HWWdZDS-15" vertex="1">
          <mxGeometry y="26" width="535" height="304" as="geometry" />
        </mxCell>
        <mxCell id="iAwMKfYmuOtD-HWWdZDS-17" value="" style="line;strokeWidth=1;fillColor=none;align=left;verticalAlign=middle;spacingTop=-1;spacingLeft=3;spacingRight=3;rotatable=0;labelPosition=right;points=[];portConstraint=eastwest;strokeColor=inherit;" parent="iAwMKfYmuOtD-HWWdZDS-15" vertex="1">
          <mxGeometry y="330" width="535" height="8" as="geometry" />
        </mxCell>
        <mxCell id="iAwMKfYmuOtD-HWWdZDS-18" value="&lt;div style=&quot;font-family: Consolas, &amp;quot;Courier New&amp;quot;, monospace; line-height: 19px; white-space: pre;&quot;&gt;&lt;div style=&quot;&quot;&gt;&lt;span&gt;&lt;font style=&quot;color: rgb(0, 0, 0);&quot;&gt;&amp;nbsp;+ &amp;lt;&amp;lt;constructor&amp;gt;&amp;gt;MenuFrame(String, LayoutManager)&lt;/font&gt;&lt;/span&gt;&lt;/div&gt;&lt;div style=&quot;&quot;&gt;&lt;span&gt;&lt;font style=&quot;color: rgb(0, 0, 0);&quot;&gt;&amp;nbsp;- createPanels(): void&lt;/font&gt;&lt;/span&gt;&lt;/div&gt;&lt;div style=&quot;&quot;&gt;&lt;span&gt;&lt;font style=&quot;color: rgb(0, 0, 0);&quot;&gt;&amp;nbsp;- createButtons(): void&lt;/font&gt;&lt;/span&gt;&lt;/div&gt;&lt;div style=&quot;&quot;&gt;&lt;span&gt;&lt;font style=&quot;color: rgb(0, 0, 0);&quot;&gt;&amp;nbsp;- bevelBorderPanel(): JPanel&lt;/font&gt;&lt;/span&gt;&lt;/div&gt;&lt;div style=&quot;&quot;&gt;&lt;span&gt;&lt;font style=&quot;color: rgb(0, 0, 0);&quot;&gt;&amp;nbsp;- standardButton(String, int): JButton&lt;/font&gt;&lt;/span&gt;&lt;/div&gt;&lt;div style=&quot;&quot;&gt;&lt;span&gt;&lt;font style=&quot;color: rgb(0, 0, 0);&quot;&gt;&amp;nbsp;+ actionPerformed(ActionEvent): void&lt;/font&gt;&lt;/span&gt;&lt;/div&gt;&lt;div style=&quot;&quot;&gt;&lt;span&gt;&lt;font style=&quot;color: rgb(0, 0, 0);&quot;&gt;&amp;nbsp;+ processChoice(): void&lt;/font&gt;&lt;/span&gt;&lt;/div&gt;&lt;div style=&quot;&quot;&gt;&lt;span&gt;&lt;font style=&quot;color: rgb(0, 0, 0);&quot;&gt;&amp;nbsp;+ OnNewEntry(): void&lt;/font&gt;&lt;/span&gt;&lt;/div&gt;&lt;div style=&quot;&quot;&gt;&lt;span&gt;&lt;font style=&quot;color: rgb(0, 0, 0);&quot;&gt;&amp;nbsp;+ OnEditEntry(): void&lt;/font&gt;&lt;/span&gt;&lt;/div&gt;&lt;div style=&quot;&quot;&gt;&lt;span&gt;&lt;font style=&quot;color: rgb(0, 0, 0);&quot;&gt;&amp;nbsp;+ OnDeleteEntry(): void&lt;/font&gt;&lt;/span&gt;&lt;/div&gt;&lt;div style=&quot;&quot;&gt;&lt;span&gt;&lt;font style=&quot;color: rgb(0, 0, 0);&quot;&gt;&amp;nbsp;+ OnViewCurrentMonth(): void&lt;/font&gt;&lt;/span&gt;&lt;/div&gt;&lt;div style=&quot;&quot;&gt;&lt;span&gt;&lt;font style=&quot;color: rgb(0, 0, 0);&quot;&gt;&amp;nbsp;+ OnViewPastMonth(): void&lt;/font&gt;&lt;/span&gt;&lt;/div&gt;&lt;div style=&quot;&quot;&gt;&lt;span&gt;&lt;font style=&quot;color: rgb(0, 0, 0);&quot;&gt;&amp;nbsp;+ OnNewMonth(): void&lt;/font&gt;&lt;/span&gt;&lt;/div&gt;&lt;div style=&quot;&quot;&gt;&lt;span&gt;&lt;font style=&quot;color: rgb(0, 0, 0);&quot;&gt;&amp;nbsp;+ OnClearMonth(): void&lt;/font&gt;&lt;/span&gt;&lt;/div&gt;&lt;/div&gt;" style="text;strokeColor=none;fillColor=none;align=left;verticalAlign=top;spacingLeft=4;spacingRight=4;overflow=hidden;rotatable=0;points=[[0,0.5],[1,0.5]];portConstraint=eastwest;whiteSpace=wrap;html=1;" parent="iAwMKfYmuOtD-HWWdZDS-15" vertex="1">
          <mxGeometry y="338" width="535" height="282" as="geometry" />
        </mxCell>
        <mxCell id="iAwMKfYmuOtD-HWWdZDS-19" value="EntryFrame" style="swimlane;fontStyle=1;align=center;verticalAlign=top;childLayout=stackLayout;horizontal=1;startSize=26;horizontalStack=0;resizeParent=1;resizeParentMax=0;resizeLast=0;collapsible=1;marginBottom=0;whiteSpace=wrap;html=1;" parent="1" vertex="1">
          <mxGeometry x="150" y="790" width="490" height="112" as="geometry" />
        </mxCell>
        <mxCell id="iAwMKfYmuOtD-HWWdZDS-20" value="+ field: type" style="text;strokeColor=none;fillColor=none;align=left;verticalAlign=top;spacingLeft=4;spacingRight=4;overflow=hidden;rotatable=0;points=[[0,0.5],[1,0.5]];portConstraint=eastwest;whiteSpace=wrap;html=1;" parent="iAwMKfYmuOtD-HWWdZDS-19" vertex="1">
          <mxGeometry y="26" width="490" height="26" as="geometry" />
        </mxCell>
        <mxCell id="hcySeCw22KZVgcper9xz-4" value="+ field: type" style="text;strokeColor=none;fillColor=none;align=left;verticalAlign=top;spacingLeft=4;spacingRight=4;overflow=hidden;rotatable=0;points=[[0,0.5],[1,0.5]];portConstraint=eastwest;whiteSpace=wrap;html=1;" vertex="1" parent="iAwMKfYmuOtD-HWWdZDS-19">
          <mxGeometry y="52" width="490" height="26" as="geometry" />
        </mxCell>
        <mxCell id="iAwMKfYmuOtD-HWWdZDS-21" value="" style="line;strokeWidth=1;fillColor=none;align=left;verticalAlign=middle;spacingTop=-1;spacingLeft=3;spacingRight=3;rotatable=0;labelPosition=right;points=[];portConstraint=eastwest;strokeColor=inherit;" parent="iAwMKfYmuOtD-HWWdZDS-19" vertex="1">
          <mxGeometry y="78" width="490" height="8" as="geometry" />
        </mxCell>
        <mxCell id="iAwMKfYmuOtD-HWWdZDS-22" value="+ method(type): type" style="text;strokeColor=none;fillColor=none;align=left;verticalAlign=top;spacingLeft=4;spacingRight=4;overflow=hidden;rotatable=0;points=[[0,0.5],[1,0.5]];portConstraint=eastwest;whiteSpace=wrap;html=1;" parent="iAwMKfYmuOtD-HWWdZDS-19" vertex="1">
          <mxGeometry y="86" width="490" height="26" as="geometry" />
        </mxCell>
        <mxCell id="hcySeCw22KZVgcper9xz-12" style="edgeStyle=orthogonalEdgeStyle;rounded=0;orthogonalLoop=1;jettySize=auto;html=1;exitX=0.5;exitY=0;exitDx=0;exitDy=0;endArrow=block;endFill=0;endSize=12;" edge="1" parent="1" source="iAwMKfYmuOtD-HWWdZDS-23" target="iAwMKfYmuOtD-HWWdZDS-4">
          <mxGeometry relative="1" as="geometry" />
        </mxCell>
        <mxCell id="iAwMKfYmuOtD-HWWdZDS-23" value="DisplayFrame" style="swimlane;fontStyle=1;align=center;verticalAlign=top;childLayout=stackLayout;horizontal=1;startSize=26;horizontalStack=0;resizeParent=1;resizeParentMax=0;resizeLast=0;collapsible=1;marginBottom=0;whiteSpace=wrap;html=1;" parent="1" vertex="1">
          <mxGeometry x="850" y="790" width="580" height="86" as="geometry" />
        </mxCell>
        <mxCell id="iAwMKfYmuOtD-HWWdZDS-24" value="+ field: type" style="text;strokeColor=none;fillColor=none;align=left;verticalAlign=top;spacingLeft=4;spacingRight=4;overflow=hidden;rotatable=0;points=[[0,0.5],[1,0.5]];portConstraint=eastwest;whiteSpace=wrap;html=1;" parent="iAwMKfYmuOtD-HWWdZDS-23" vertex="1">
          <mxGeometry y="26" width="580" height="26" as="geometry" />
        </mxCell>
        <mxCell id="iAwMKfYmuOtD-HWWdZDS-25" value="" style="line;strokeWidth=1;fillColor=none;align=left;verticalAlign=middle;spacingTop=-1;spacingLeft=3;spacingRight=3;rotatable=0;labelPosition=right;points=[];portConstraint=eastwest;strokeColor=inherit;" parent="iAwMKfYmuOtD-HWWdZDS-23" vertex="1">
          <mxGeometry y="52" width="580" height="8" as="geometry" />
        </mxCell>
        <mxCell id="iAwMKfYmuOtD-HWWdZDS-26" value="+ method(type): type" style="text;strokeColor=none;fillColor=none;align=left;verticalAlign=top;spacingLeft=4;spacingRight=4;overflow=hidden;rotatable=0;points=[[0,0.5],[1,0.5]];portConstraint=eastwest;whiteSpace=wrap;html=1;" parent="iAwMKfYmuOtD-HWWdZDS-23" vertex="1">
          <mxGeometry y="60" width="580" height="26" as="geometry" />
        </mxCell>
        <mxCell id="hcySeCw22KZVgcper9xz-2" style="edgeStyle=orthogonalEdgeStyle;rounded=0;orthogonalLoop=1;jettySize=auto;html=1;exitX=0;exitY=0.5;exitDx=0;exitDy=0;dashed=1;endArrow=none;startFill=0;" edge="1" parent="1" source="iAwMKfYmuOtD-HWWdZDS-2" target="iAwMKfYmuOtD-HWWdZDS-11">
          <mxGeometry relative="1" as="geometry" />
        </mxCell>
        <mxCell id="hcySeCw22KZVgcper9xz-11" style="edgeStyle=orthogonalEdgeStyle;rounded=0;orthogonalLoop=1;jettySize=auto;html=1;exitX=0.5;exitY=0;exitDx=0;exitDy=0;endArrow=block;endFill=0;endSize=12;" edge="1" parent="1" source="iAwMKfYmuOtD-HWWdZDS-19">
          <mxGeometry relative="1" as="geometry">
            <mxPoint x="301" y="520" as="targetPoint" />
          </mxGeometry>
        </mxCell>
        <mxCell id="DPkEjHylvTzP3XisKMo5-6" style="edgeStyle=orthogonalEdgeStyle;rounded=0;orthogonalLoop=1;jettySize=auto;html=1;exitX=0.5;exitY=1;exitDx=0;exitDy=0;entryX=0.75;entryY=1;entryDx=0;entryDy=0;endArrow=none;startFill=0;" edge="1" parent="1" source="1rIV1Xrl5HKzWOK92XkK-1" target="uKriwL2rzMwTq72pdFBO-1">
          <mxGeometry relative="1" as="geometry" />
        </mxCell>
        <mxCell id="1rIV1Xrl5HKzWOK92XkK-1" value="&lt;p style=&quot;margin:0px;margin-top:4px;text-align:center;&quot;&gt;&lt;b&gt;Entry&lt;/b&gt;&lt;/p&gt;&lt;hr size=&quot;1&quot; style=&quot;border-style:solid;&quot;&gt;&lt;p style=&quot;margin:0px;margin-left:4px;&quot;&gt;+ field: Type&lt;/p&gt;&lt;hr size=&quot;1&quot; style=&quot;border-style:solid;&quot;&gt;&lt;p style=&quot;margin:0px;margin-left:4px;&quot;&gt;+ method(): Type&lt;/p&gt;" style="verticalAlign=top;align=left;overflow=fill;html=1;whiteSpace=wrap;" vertex="1" parent="1">
          <mxGeometry x="150" y="1720" width="440" height="90" as="geometry" />
        </mxCell>
        <mxCell id="1rIV1Xrl5HKzWOK92XkK-2" value="&lt;p style=&quot;margin:0px;margin-top:4px;text-align:center;&quot;&gt;&lt;b&gt;FileManager&lt;/b&gt;&lt;/p&gt;&lt;hr size=&quot;1&quot; style=&quot;border-style:solid;&quot;&gt;&lt;p style=&quot;margin:0px;margin-left:4px;&quot;&gt;+ field: Type&lt;/p&gt;&lt;hr size=&quot;1&quot; style=&quot;border-style:solid;&quot;&gt;&lt;p style=&quot;margin:0px;margin-left:4px;&quot;&gt;+ method(): Type&lt;/p&gt;" style="verticalAlign=top;align=left;overflow=fill;html=1;whiteSpace=wrap;" vertex="1" parent="1">
          <mxGeometry x="850" y="1680" width="440" height="90" as="geometry" />
        </mxCell>
        <mxCell id="uKriwL2rzMwTq72pdFBO-1" value="&lt;p style=&quot;margin:0px;margin-top:4px;text-align:center;&quot;&gt;&lt;b&gt;SelectionMap&lt;/b&gt;&lt;/p&gt;&lt;hr size=&quot;1&quot; style=&quot;border-style:solid;&quot;&gt;&lt;p style=&quot;margin:0px;margin-left:4px;&quot;&gt;+ field: Type&lt;/p&gt;&lt;hr size=&quot;1&quot; style=&quot;border-style:solid;&quot;&gt;&lt;p style=&quot;margin:0px;margin-left:4px;&quot;&gt;+ method(): Type&lt;/p&gt;" style="verticalAlign=top;align=left;overflow=fill;html=1;whiteSpace=wrap;" vertex="1" parent="1">
          <mxGeometry x="1550" y="1685" width="440" height="80" as="geometry" />
        </mxCell>
        <mxCell id="DPkEjHylvTzP3XisKMo5-1" style="edgeStyle=orthogonalEdgeStyle;rounded=0;orthogonalLoop=1;jettySize=auto;html=1;exitX=1;exitY=0.5;exitDx=0;exitDy=0;entryX=0.5;entryY=0;entryDx=0;entryDy=0;endArrow=none;startFill=0;" edge="1" parent="1" source="iAwMKfYmuOtD-HWWdZDS-18" target="1rIV1Xrl5HKzWOK92XkK-1">
          <mxGeometry relative="1" as="geometry">
            <Array as="points">
              <mxPoint y="1269" />
              <mxPoint y="1670" />
              <mxPoint x="370" y="1670" />
            </Array>
          </mxGeometry>
        </mxCell>
        <mxCell id="DPkEjHylvTzP3XisKMo5-2" style="edgeStyle=orthogonalEdgeStyle;rounded=0;orthogonalLoop=1;jettySize=auto;html=1;exitX=1;exitY=0.5;exitDx=0;exitDy=0;endArrow=none;startFill=0;" edge="1" parent="1" source="iAwMKfYmuOtD-HWWdZDS-22" target="1rIV1Xrl5HKzWOK92XkK-2">
          <mxGeometry relative="1" as="geometry">
            <Array as="points">
              <mxPoint x="730" y="889" />
              <mxPoint x="730" y="1725" />
            </Array>
          </mxGeometry>
        </mxCell>
        <mxCell id="DPkEjHylvTzP3XisKMo5-3" style="edgeStyle=orthogonalEdgeStyle;rounded=0;orthogonalLoop=1;jettySize=auto;html=1;exitX=1;exitY=0.5;exitDx=0;exitDy=0;entryX=1;entryY=0.5;entryDx=0;entryDy=0;endArrow=none;startFill=0;" edge="1" parent="1" source="iAwMKfYmuOtD-HWWdZDS-24" target="1rIV1Xrl5HKzWOK92XkK-2">
          <mxGeometry relative="1" as="geometry" />
        </mxCell>
        <mxCell id="DPkEjHylvTzP3XisKMo5-4" style="edgeStyle=orthogonalEdgeStyle;rounded=0;orthogonalLoop=1;jettySize=auto;html=1;exitX=0;exitY=0.5;exitDx=0;exitDy=0;entryX=0.5;entryY=0;entryDx=0;entryDy=0;endArrow=none;startFill=0;" edge="1" parent="1" source="iAwMKfYmuOtD-HWWdZDS-22" target="1rIV1Xrl5HKzWOK92XkK-1">
          <mxGeometry relative="1" as="geometry">
            <Array as="points">
              <mxPoint y="889" />
              <mxPoint y="1670" />
              <mxPoint x="370" y="1670" />
            </Array>
          </mxGeometry>
        </mxCell>
        <mxCell id="DPkEjHylvTzP3XisKMo5-5" style="edgeStyle=orthogonalEdgeStyle;rounded=0;orthogonalLoop=1;jettySize=auto;html=1;exitX=0;exitY=0.5;exitDx=0;exitDy=0;endArrow=none;startFill=0;" edge="1" parent="1" source="iAwMKfYmuOtD-HWWdZDS-24" target="1rIV1Xrl5HKzWOK92XkK-1">
          <mxGeometry relative="1" as="geometry">
            <Array as="points">
              <mxPoint x="770" y="829" />
              <mxPoint x="770" y="1765" />
            </Array>
          </mxGeometry>
        </mxCell>
        <mxCell id="inuUJrZlu9zw-JTVeuuu-1" style="edgeStyle=orthogonalEdgeStyle;rounded=0;orthogonalLoop=1;jettySize=auto;html=1;exitX=1;exitY=0.5;exitDx=0;exitDy=0;endArrow=none;startFill=0;" edge="1" parent="1" source="iAwMKfYmuOtD-HWWdZDS-24" target="uKriwL2rzMwTq72pdFBO-1">
          <mxGeometry relative="1" as="geometry" />
        </mxCell>
        <mxCell id="inuUJrZlu9zw-JTVeuuu-3" value="JFrame" style="html=1;whiteSpace=wrap;" vertex="1" parent="1">
          <mxGeometry x="1340" y="120" width="190" height="54" as="geometry" />
        </mxCell>
      </root>
    </mxGraphModel>
  </diagram>
  <diagram id="_HMmwSO6D3qUdXsTwFEu" name="Page-2">
    <mxGraphModel dx="1990" dy="768" grid="1" gridSize="10" guides="1" tooltips="1" connect="1" arrows="1" fold="1" page="1" pageScale="1" pageWidth="850" pageHeight="1100" math="0" shadow="0">
      <root>
        <mxCell id="0" />
        <mxCell id="1" parent="0" />
        <mxCell id="Wh1JpfEgpnODhefdoty_-3" value="FinanceTracker" style="html=1;whiteSpace=wrap;" vertex="1" parent="1">
          <mxGeometry x="-300" y="480" width="110" height="50" as="geometry" />
        </mxCell>
        <mxCell id="RfmyVrS-e4u7N5jUN92r-1" value="LayoutMismatchException" style="html=1;whiteSpace=wrap;" vertex="1" parent="1">
          <mxGeometry x="-240" y="340" width="170" height="50" as="geometry" />
        </mxCell>
        <mxCell id="V25XwgEuOgwLi3ZFZDU2-8" style="edgeStyle=orthogonalEdgeStyle;rounded=0;orthogonalLoop=1;jettySize=auto;html=1;exitX=0;exitY=0.5;exitDx=0;exitDy=0;endArrow=none;startFill=0;dashed=1;" edge="1" parent="1" source="DFRvF2hYtU4N2psNctsa-1" target="RfmyVrS-e4u7N5jUN92r-1">
          <mxGeometry relative="1" as="geometry" />
        </mxCell>
        <mxCell id="V25XwgEuOgwLi3ZFZDU2-11" style="edgeStyle=orthogonalEdgeStyle;rounded=0;orthogonalLoop=1;jettySize=auto;html=1;exitX=1;exitY=0.5;exitDx=0;exitDy=0;endArrow=block;endFill=0;" edge="1" parent="1" source="DFRvF2hYtU4N2psNctsa-1" target="V25XwgEuOgwLi3ZFZDU2-10">
          <mxGeometry relative="1" as="geometry" />
        </mxCell>
        <mxCell id="DFRvF2hYtU4N2psNctsa-1" value="&lt;i&gt;AppFrame&lt;/i&gt;" style="html=1;whiteSpace=wrap;" vertex="1" parent="1">
          <mxGeometry x="120" y="340" width="110" height="50" as="geometry" />
        </mxCell>
        <mxCell id="V25XwgEuOgwLi3ZFZDU2-5" style="edgeStyle=orthogonalEdgeStyle;rounded=0;orthogonalLoop=1;jettySize=auto;html=1;exitX=0.5;exitY=0;exitDx=0;exitDy=0;endArrow=block;endFill=0;" edge="1" parent="1" source="DFRvF2hYtU4N2psNctsa-2" target="DFRvF2hYtU4N2psNctsa-1">
          <mxGeometry relative="1" as="geometry" />
        </mxCell>
        <mxCell id="V25XwgEuOgwLi3ZFZDU2-22" style="edgeStyle=orthogonalEdgeStyle;rounded=0;orthogonalLoop=1;jettySize=auto;html=1;exitX=0.75;exitY=1;exitDx=0;exitDy=0;endArrow=none;startFill=0;" edge="1" parent="1" source="DFRvF2hYtU4N2psNctsa-2" target="V25XwgEuOgwLi3ZFZDU2-2">
          <mxGeometry relative="1" as="geometry" />
        </mxCell>
        <mxCell id="V25XwgEuOgwLi3ZFZDU2-25" style="edgeStyle=orthogonalEdgeStyle;rounded=0;orthogonalLoop=1;jettySize=auto;html=1;exitX=1;exitY=0.5;exitDx=0;exitDy=0;entryX=0;entryY=0.5;entryDx=0;entryDy=0;endArrow=none;startFill=0;" edge="1" parent="1" source="DFRvF2hYtU4N2psNctsa-2" target="DFRvF2hYtU4N2psNctsa-3">
          <mxGeometry relative="1" as="geometry" />
        </mxCell>
        <mxCell id="V25XwgEuOgwLi3ZFZDU2-26" style="edgeStyle=orthogonalEdgeStyle;rounded=0;orthogonalLoop=1;jettySize=auto;html=1;exitX=0.25;exitY=0;exitDx=0;exitDy=0;entryX=0.75;entryY=0;entryDx=0;entryDy=0;endArrow=none;startFill=0;" edge="1" parent="1" source="DFRvF2hYtU4N2psNctsa-2" target="V25XwgEuOgwLi3ZFZDU2-1">
          <mxGeometry relative="1" as="geometry">
            <Array as="points">
              <mxPoint x="-22" y="290" />
              <mxPoint x="352" y="290" />
            </Array>
          </mxGeometry>
        </mxCell>
        <mxCell id="V25XwgEuOgwLi3ZFZDU2-28" style="edgeStyle=orthogonalEdgeStyle;rounded=0;orthogonalLoop=1;jettySize=auto;html=1;exitX=0;exitY=0.5;exitDx=0;exitDy=0;entryX=1;entryY=0.5;entryDx=0;entryDy=0;endArrow=none;startFill=0;" edge="1" parent="1" source="DFRvF2hYtU4N2psNctsa-2" target="Wh1JpfEgpnODhefdoty_-3">
          <mxGeometry relative="1" as="geometry" />
        </mxCell>
        <mxCell id="V25XwgEuOgwLi3ZFZDU2-29" style="edgeStyle=orthogonalEdgeStyle;rounded=0;orthogonalLoop=1;jettySize=auto;html=1;exitX=0;exitY=1;exitDx=0;exitDy=0;dashed=1;endArrow=block;startFill=0;endFill=0;" edge="1" parent="1" source="DFRvF2hYtU4N2psNctsa-2" target="V25XwgEuOgwLi3ZFZDU2-9">
          <mxGeometry relative="1" as="geometry" />
        </mxCell>
        <mxCell id="V25XwgEuOgwLi3ZFZDU2-32" style="edgeStyle=orthogonalEdgeStyle;rounded=0;orthogonalLoop=1;jettySize=auto;html=1;exitX=0.75;exitY=1;exitDx=0;exitDy=0;endArrow=none;startFill=0;" edge="1" parent="1" source="DFRvF2hYtU4N2psNctsa-2" target="V25XwgEuOgwLi3ZFZDU2-3">
          <mxGeometry relative="1" as="geometry" />
        </mxCell>
        <mxCell id="DFRvF2hYtU4N2psNctsa-2" value="MainFrame" style="html=1;whiteSpace=wrap;" vertex="1" parent="1">
          <mxGeometry x="-50" y="480" width="110" height="50" as="geometry" />
        </mxCell>
        <mxCell id="V25XwgEuOgwLi3ZFZDU2-6" style="edgeStyle=orthogonalEdgeStyle;rounded=0;orthogonalLoop=1;jettySize=auto;html=1;exitX=0.5;exitY=0;exitDx=0;exitDy=0;endArrow=block;endFill=0;" edge="1" parent="1" source="DFRvF2hYtU4N2psNctsa-3" target="DFRvF2hYtU4N2psNctsa-1">
          <mxGeometry relative="1" as="geometry" />
        </mxCell>
        <mxCell id="V25XwgEuOgwLi3ZFZDU2-19" style="edgeStyle=orthogonalEdgeStyle;rounded=0;orthogonalLoop=1;jettySize=auto;html=1;exitX=0.5;exitY=1;exitDx=0;exitDy=0;endArrow=none;startFill=0;" edge="1" parent="1" source="DFRvF2hYtU4N2psNctsa-3" target="V25XwgEuOgwLi3ZFZDU2-2">
          <mxGeometry relative="1" as="geometry" />
        </mxCell>
        <mxCell id="V25XwgEuOgwLi3ZFZDU2-34" style="edgeStyle=orthogonalEdgeStyle;rounded=0;orthogonalLoop=1;jettySize=auto;html=1;exitX=0.5;exitY=1;exitDx=0;exitDy=0;endArrow=none;startFill=0;" edge="1" parent="1" source="DFRvF2hYtU4N2psNctsa-3" target="V25XwgEuOgwLi3ZFZDU2-3">
          <mxGeometry relative="1" as="geometry" />
        </mxCell>
        <mxCell id="DFRvF2hYtU4N2psNctsa-3" value="EntryFrame" style="html=1;whiteSpace=wrap;" vertex="1" parent="1">
          <mxGeometry x="120" y="480" width="110" height="50" as="geometry" />
        </mxCell>
        <mxCell id="V25XwgEuOgwLi3ZFZDU2-7" style="edgeStyle=orthogonalEdgeStyle;rounded=0;orthogonalLoop=1;jettySize=auto;html=1;exitX=0.5;exitY=0;exitDx=0;exitDy=0;endArrow=block;endFill=0;" edge="1" parent="1" source="V25XwgEuOgwLi3ZFZDU2-1" target="DFRvF2hYtU4N2psNctsa-1">
          <mxGeometry relative="1" as="geometry" />
        </mxCell>
        <mxCell id="V25XwgEuOgwLi3ZFZDU2-20" style="edgeStyle=orthogonalEdgeStyle;rounded=0;orthogonalLoop=1;jettySize=auto;html=1;exitX=0.5;exitY=1;exitDx=0;exitDy=0;endArrow=none;startFill=0;entryX=0.5;entryY=0;entryDx=0;entryDy=0;" edge="1" parent="1" source="V25XwgEuOgwLi3ZFZDU2-1" target="V25XwgEuOgwLi3ZFZDU2-2">
          <mxGeometry relative="1" as="geometry">
            <mxPoint x="435" y="600" as="targetPoint" />
          </mxGeometry>
        </mxCell>
        <mxCell id="V25XwgEuOgwLi3ZFZDU2-33" style="edgeStyle=orthogonalEdgeStyle;rounded=0;orthogonalLoop=1;jettySize=auto;html=1;exitX=0.5;exitY=1;exitDx=0;exitDy=0;endArrow=none;startFill=0;" edge="1" parent="1" source="V25XwgEuOgwLi3ZFZDU2-1" target="V25XwgEuOgwLi3ZFZDU2-3">
          <mxGeometry relative="1" as="geometry" />
        </mxCell>
        <mxCell id="V25XwgEuOgwLi3ZFZDU2-1" value="DisplayFrame" style="html=1;whiteSpace=wrap;" vertex="1" parent="1">
          <mxGeometry x="270" y="480" width="110" height="50" as="geometry" />
        </mxCell>
        <mxCell id="V25XwgEuOgwLi3ZFZDU2-35" style="edgeStyle=orthogonalEdgeStyle;rounded=0;orthogonalLoop=1;jettySize=auto;html=1;exitX=0.5;exitY=1;exitDx=0;exitDy=0;entryX=1;entryY=0.5;entryDx=0;entryDy=0;endArrow=none;startFill=0;" edge="1" parent="1" source="V25XwgEuOgwLi3ZFZDU2-2" target="V25XwgEuOgwLi3ZFZDU2-4">
          <mxGeometry relative="1" as="geometry" />
        </mxCell>
        <mxCell id="V25XwgEuOgwLi3ZFZDU2-2" value="Entry" style="html=1;whiteSpace=wrap;" vertex="1" parent="1">
          <mxGeometry x="60" y="680" width="110" height="50" as="geometry" />
        </mxCell>
        <mxCell id="V25XwgEuOgwLi3ZFZDU2-3" value="FileManager" style="html=1;whiteSpace=wrap;" vertex="1" parent="1">
          <mxGeometry x="200" y="680" width="110" height="50" as="geometry" />
        </mxCell>
        <mxCell id="V25XwgEuOgwLi3ZFZDU2-36" style="edgeStyle=orthogonalEdgeStyle;rounded=0;orthogonalLoop=1;jettySize=auto;html=1;exitX=0.25;exitY=0;exitDx=0;exitDy=0;entryX=0.75;entryY=1;entryDx=0;entryDy=0;endArrow=none;startFill=0;" edge="1" parent="1" source="V25XwgEuOgwLi3ZFZDU2-4" target="V25XwgEuOgwLi3ZFZDU2-1">
          <mxGeometry relative="1" as="geometry" />
        </mxCell>
        <mxCell id="V25XwgEuOgwLi3ZFZDU2-4" value="SelectionMap" style="html=1;whiteSpace=wrap;" vertex="1" parent="1">
          <mxGeometry x="360" y="680" width="110" height="50" as="geometry" />
        </mxCell>
        <mxCell id="V25XwgEuOgwLi3ZFZDU2-9" value="ActionListener" style="html=1;whiteSpace=wrap;" vertex="1" parent="1">
          <mxGeometry x="-220" y="570" width="110" height="50" as="geometry" />
        </mxCell>
        <mxCell id="V25XwgEuOgwLi3ZFZDU2-10" value="JFrame" style="html=1;whiteSpace=wrap;" vertex="1" parent="1">
          <mxGeometry x="410" y="340" width="110" height="50" as="geometry" />
        </mxCell>
      </root>
    </mxGraphModel>
  </diagram>
</mxfile>
